# Blender 5.0.0
# www.blender.org
o Cube
v -1.000000 2.839325 1.000000
v -0.455202 3.035762 0.846225
v -1.000000 2.839325 -1.000000
v -0.455202 3.035762 -0.846225
v -0.041192 2.839325 1.000000
v -0.081869 3.035762 0.846225
v -0.041192 2.839325 -1.000000
v -0.081869 3.035762 -0.846225
v -1.000000 2.839325 0.000000
v -0.455202 3.035762 0.000000
v -0.041192 2.839325 0.000000
v -0.081869 3.035762 0.000000
v -1.000000 3.035762 0.000000
v -1.000000 3.035762 -1.000000
v -0.041192 3.035762 -1.000000
v -0.041192 3.035762 0.000000
v -0.041192 3.035762 1.000000
v -1.000000 3.035762 1.000000
v -0.455202 3.736930 0.000000
v -0.081869 3.736930 0.000000
v -0.455202 3.736930 -0.846225
v -0.081869 3.736930 -0.846225
v -0.081869 3.736930 0.846225
v -0.455202 3.736930 0.846225
v -0.455202 3.993855 0.000000
v -0.081869 3.993855 0.000000
v -0.455202 3.993855 -0.846225
v -0.081869 3.993855 -0.846225
v -0.081869 3.993855 0.846225
v -0.455202 3.993855 0.846225
v -0.812437 3.736930 0.000000
v -0.812437 3.736930 -0.846225
v -0.812437 3.736930 0.846225
v -0.812437 3.993855 0.000000
v -0.812437 3.993855 -0.846225
v -0.812437 3.993855 0.846225
v -0.968706 3.798646 0.160397
v -0.968706 3.798646 0.665550
v -0.968706 3.932140 0.665550
v -0.968706 3.932140 0.160397
v -0.968706 3.798646 -0.665550
v -0.968706 3.798646 -0.160397
v -0.968706 3.932140 -0.160397
v -0.968706 3.932140 -0.665550
v 0.000000 0.000000 -3.106871
v 0.000000 2.626449 -3.106871
v 0.000000 0.000000 3.106871
v 0.000000 2.626449 3.106871
v -0.294151 0.000000 3.001007
v -0.294151 2.626449 3.001007
v -0.568256 0.000000 2.690630
v -0.568256 2.626449 2.690630
v -0.803635 0.000000 2.196890
v -0.803635 2.626449 2.196890
v -0.984248 0.000000 1.553436
v -0.984248 2.626449 1.553436
v -1.097786 0.000000 0.804118
v -1.097786 2.626449 0.804118
v -1.136511 0.000000 0.000000
v -1.136511 2.626449 0.000000
v -1.097786 0.000000 -0.804118
v -1.097786 2.626449 -0.804118
v -0.984248 0.000000 -1.553436
v -0.984248 2.626449 -1.553436
v -0.803635 0.000000 -2.196890
v -0.803635 2.626449 -2.196890
v -0.568256 0.000000 -2.690630
v -0.568256 2.626449 -2.690630
v -0.294151 0.000000 -3.001007
v -0.294151 2.626449 -3.001007
v -0.294151 2.896852 3.001007
v 0.000000 2.896852 3.106871
v -0.568256 2.896852 2.690630
v -0.803635 2.896852 2.196890
v -0.984248 2.896852 1.553436
v -1.097786 2.896852 0.804118
v -1.136511 2.896852 0.000000
v -1.097786 2.896852 -0.804118
v -0.984248 2.896852 -1.553436
v -0.803635 2.896852 -2.196890
v -0.568256 2.896852 -2.690630
v -0.294151 2.896852 -3.001007
v 0.000000 2.896852 -3.106871
v -0.314477 2.626449 3.208376
v -0.010251 2.626449 3.319719
v -0.607522 2.626449 2.876551
v -0.859166 2.626449 2.348694
v -1.052259 2.626449 1.660778
v -1.173642 2.626449 0.859682
v -1.215044 2.626449 0.000000
v -1.173642 2.626449 -0.859682
v -1.052259 2.626449 -1.660778
v -0.859166 2.626449 -2.348694
v -0.607522 2.626449 -2.876551
v -0.314477 2.626449 -3.208376
v -0.010251 2.626449 -3.319719
v -0.314477 2.896852 3.208376
v -0.010251 2.896852 3.319719
v -0.607522 2.896852 2.876551
v -0.859166 2.896852 2.348694
v -1.052259 2.896852 1.660778
v -1.173642 2.896852 0.859682
v -1.215044 2.896852 0.000000
v -1.173642 2.896852 -0.859682
v -1.052259 2.896852 -1.660778
v -0.859166 2.896852 -2.348694
v -0.607522 2.896852 -2.876551
v -0.314477 2.896852 -3.208376
v -0.010251 2.896852 -3.319719
v -0.692628 3.600158 -0.608322
v -0.692628 3.740646 -0.608322
v -0.550509 3.600158 -0.526269
v -0.550509 3.740646 -0.526269
v -0.550509 3.600158 -0.362164
v -0.550509 3.740646 -0.362164
v -0.692628 3.600158 -0.280111
v -0.692628 3.740646 -0.280111
v -0.834748 3.600158 -0.362164
v -0.834748 3.740646 -0.362164
v -0.834748 3.600158 -0.526269
v -0.834748 3.740646 -0.526269
v -0.834748 3.646622 -0.388840
v -0.834748 3.733758 -0.388840
v -0.834748 3.733758 -0.499593
v -0.834748 3.646622 -0.499593
v -1.408084 3.733758 -0.388840
v -1.408084 3.646622 -0.388840
v -1.408084 3.646622 -0.499593
v -1.408084 3.733758 -0.499593
v -1.226176 3.664606 -0.476735
v -1.226176 3.715774 -0.476735
v -1.226176 3.664606 -0.411698
v -1.226176 3.715774 -0.411698
v -1.264750 3.646622 -0.499593
v -1.264750 3.646622 -0.388840
v -1.264750 3.733758 -0.499593
v -1.264750 3.733758 -0.388840
v -0.698562 3.600158 0.279883
v -0.698562 3.740646 0.279883
v -0.536166 3.600158 0.303508
v -0.536166 3.740646 0.303508
v -0.475428 3.600158 0.455960
v -0.475428 3.740646 0.455960
v -0.577086 3.600158 0.584786
v -0.577086 3.740646 0.584786
v -0.739482 3.600158 0.561162
v -0.739482 3.740646 0.561162
v -0.800220 3.600158 0.408710
v -0.800220 3.740646 0.408710
v -0.749355 3.646622 0.536380
v -0.749355 3.733758 0.536380
v -0.790347 3.733758 0.433492
v -0.790347 3.646622 0.433492
v -1.281976 3.733758 0.748582
v -1.281976 3.646622 0.748582
v -1.322968 3.646622 0.645694
v -1.322968 3.733758 0.645694
v -1.145517 3.664606 0.599602
v -1.145517 3.715774 0.599602
v -1.121446 3.664606 0.660019
v -1.121446 3.715774 0.660019
v -1.189812 3.646622 0.592643
v -1.148820 3.646622 0.695531
v -1.189812 3.733758 0.592643
v -1.148820 3.733758 0.695531
vn -1.0000 -0.0000 -0.0000
vn -0.0000 -0.0000 -1.0000
vn 1.0000 -0.0000 -0.0000
vn -0.0000 -0.0000 1.0000
vn -0.0000 -1.0000 -0.0000
vn -0.0000 1.0000 -0.0000
vn -0.3673 -0.9301 -0.0000
vn -0.7563 -0.0000 0.6542
vn -0.3673 0.9301 -0.0000
vn -0.7163 -0.0000 -0.6978
vn -0.7163 -0.0000 0.6978
vn -0.7563 -0.0000 -0.6542
vn -0.3386 -0.0000 0.9409
vn -0.7495 -0.0000 0.6620
vn -0.9027 -0.0000 0.4303
vn -0.9628 -0.0000 0.2702
vn -0.9887 -0.0000 0.1498
vn -0.9988 -0.0000 0.0481
vn -0.9988 -0.0000 -0.0481
vn -0.9887 -0.0000 -0.1498
vn -0.9628 -0.0000 -0.2702
vn -0.9027 -0.0000 -0.4303
vn -0.7495 -0.0000 -0.6620
vn -0.3386 -0.0000 -0.9409
vn -0.3437 -0.0000 -0.9391
vn -0.3437 -0.0000 0.9391
vn 0.9988 -0.0000 -0.0481
vn 0.9988 -0.0000 0.0481
vn 0.5000 -0.0000 -0.8660
vn 0.5000 -0.0000 0.8660
vn -0.5000 -0.0000 0.8660
vn -0.5000 -0.0000 -0.8660
vn -0.0583 -0.0000 0.9983
vn -0.0459 0.9989 -0.0000
vn -0.0459 -0.9989 -0.0000
vn -0.0583 -0.0000 -0.9983
vn 0.5098 -0.0000 0.8603
vn 0.4226 0.9063 -0.0000
vn 0.4226 -0.9063 -0.0000
vn 0.5098 -0.0000 -0.8603
vn 0.1440 -0.0000 -0.9896
vn 0.9290 -0.0000 -0.3701
vn 0.7850 -0.0000 0.6195
vn -0.1440 -0.0000 0.9896
vn -0.3701 -0.0000 -0.9290
vn -0.7850 -0.0000 -0.6195
vn -0.9290 -0.0000 0.3701
vn 0.3701 -0.0000 0.9290
vn 0.3153 -0.0000 0.9490
vn -0.0426 0.9989 0.0170
vn -0.0426 -0.9989 0.0170
vn -0.4236 -0.0000 -0.9058
vn 0.7920 -0.0000 0.6105
vn 0.3926 0.9063 -0.1564
vn 0.3925 -0.9063 -0.1564
vn 0.1552 -0.0000 -0.9879
vt 0.731363 0.345235
vt 0.731363 0.369276
vt 0.744529 0.369276
vt 0.744529 0.345235
vt 0.738844 0.369276
vt 0.743971 0.369276
vt 0.743971 0.455088
vt 0.738844 0.455088
vt 0.738844 0.486532
vt 0.743971 0.486532
vt 0.733938 0.455088
vt 0.733938 0.486532
vt 0.731793 0.462642
vt 0.731793 0.478979
vt 0.826657 0.021999
vt 0.826657 0.150448
vt 0.822666 0.150448
vt 0.822666 0.021999
vt 0.818947 0.150448
vt 0.818947 0.021999
vt 0.815753 0.150448
vt 0.815753 0.021999
vt 0.813302 0.150448
vt 0.813302 0.021999
vt 0.811762 0.150448
vt 0.811762 0.021999
vt 0.811236 0.150448
vt 0.811236 0.021999
vt 0.811762 0.021999
vt 0.813302 0.021999
vt 0.815753 0.021999
vt 0.818947 0.021999
vt 0.822666 0.021999
vt 0.826657 0.150448
vt 0.826657 0.021999
vt 0.377935 0.018843
vt 0.374299 0.018843
vt 0.373779 0.018843
vt 0.377665 0.018843
vt 0.536573 0.566935
vt 0.536702 0.583330
vt 0.536823 0.598608
vt 0.536927 0.611728
vt 0.537006 0.621795
vt 0.537056 0.628123
vt 0.537073 0.630282
vt 0.366763 0.018843
vt 0.367277 0.018843
vt 0.366271 0.018843
vt 0.365722 0.018843
vt 0.377935 0.018843
vt 0.381836 0.018843
vt 0.381700 0.018843
vt 0.377665 0.018843
vt 0.381836 0.018843
vt 0.381836 0.146319
vt 0.381836 0.146319
vt 0.377935 0.146319
vt 0.374299 0.146319
vt 0.373779 0.146319
vt 0.377665 0.146319
vt 0.368782 0.146319
vt 0.371178 0.146319
vt 0.370441 0.146319
vt 0.367880 0.146319
vt 0.381700 0.146319
vt 0.368782 0.018843
vt 0.367880 0.018843
vt 0.371178 0.018843
vt 0.374299 0.018843
vt 0.373779 0.018843
vt 0.370441 0.018843
vt 0.367277 0.146319
vt 0.366271 0.146319
vt 0.366763 0.146319
vt 0.365722 0.146319
vt 0.371178 0.018843
vt 0.370441 0.018843
vt 0.381700 0.018843
vt 0.377665 0.146319
vt 0.381700 0.146319
vt 0.367880 0.146319
vt 0.366271 0.146319
vt 0.373779 0.146319
vt 0.370441 0.146319
vt 0.374299 0.146319
vt 0.371178 0.146319
vt 0.377935 0.146319
vt 0.368782 0.146319
vt 0.367277 0.146319
vt 0.462818 0.028659
vt 0.462818 0.142019
vt 0.465135 0.142019
vt 0.465135 0.028659
vt 0.460501 0.142019
vt 0.460501 0.028659
vt 0.453490 0.136461
vt 0.453490 0.066151
vt 0.451154 0.066151
vt 0.451154 0.136461
vt 0.460501 0.136461
vt 0.460501 0.066151
vt 0.454119 0.121950
vt 0.454119 0.080662
vt 0.462722 0.028659
vt 0.462722 0.142019
vt 0.465369 0.142019
vt 0.465369 0.028659
vt 0.466359 0.142019
vt 0.466359 0.028659
vt 0.464702 0.142019
vt 0.464702 0.028659
vt 0.462054 0.142019
vt 0.462054 0.028659
vt 0.461064 0.142019
vt 0.454712 0.136461
vt 0.454712 0.066151
vt 0.452541 0.066151
vt 0.452541 0.136461
vt 0.461064 0.028659
vt 0.461893 0.136461
vt 0.461893 0.066151
vt 0.461225 0.136461
vt 0.461225 0.066151
vt 0.453210 0.066151
vt 0.453210 0.136461
vt 0.455381 0.066151
vt 0.455381 0.136461
vt 0.455827 0.121950
vt 0.455827 0.080662
vt 0.455434 0.121950
vt 0.455434 0.080662
s 0
f 9/1/1 13/2/1 14/2/1 3/1/1
f 3/1/2 14/2/2 15/3/2 7/4/2
f 11/4/3 16/3/3 17/3/3 5/4/3
f 5/4/4 17/3/4 18/2/4 1/1/4
f 9/1/5 11/4/5 5/4/5 1/1/5
f 2/5/4 6/6/4 23/7/4 24/8/4
f 12/6/3 8/6/3 22/7/3 20/7/3
f 3/1/5 7/4/5 11/4/5 9/1/5
f 7/4/3 15/3/3 16/3/3 11/4/3
f 1/1/1 18/2/1 13/2/1 9/1/1
f 10/5/6 4/5/6 14/2/6 13/2/6
f 4/5/6 8/6/6 15/3/6 14/2/6
f 12/6/6 6/6/6 17/3/6 16/3/6
f 6/6/6 2/5/6 18/2/6 17/3/6
f 2/5/6 10/5/6 13/2/6 18/2/6
f 8/6/6 12/6/6 16/3/6 15/3/6
f 22/7/2 21/8/2 27/9/2 28/10/2
f 24/8/4 23/7/4 29/10/4 30/9/4
f 8/6/2 4/5/2 21/8/2 22/7/2
f 10/5/1 2/5/1 24/8/1 19/8/1
f 6/6/3 12/6/3 20/7/3 23/7/3
f 4/5/1 10/5/1 19/8/1 21/8/1
f 26/10/6 25/9/6 30/9/6 29/10/6
f 28/10/6 27/9/6 25/9/6 26/10/6
f 27/9/2 21/8/2 32/11/2 35/12/2
f 23/7/3 20/7/3 26/10/3 29/10/3
f 25/9/6 27/9/6 35/12/6 34/12/6
f 20/7/3 22/7/3 28/10/3 26/10/3
f 37/13/1 38/13/1 39/14/1 40/14/1
f 41/13/1 42/13/1 43/14/1 44/14/1
f 19/8/5 24/8/5 33/11/5 31/11/5
f 21/8/5 19/8/5 31/11/5 32/11/5
f 24/8/4 30/9/4 36/12/4 33/11/4
f 30/9/6 25/9/6 34/12/6 36/12/6
f 31/11/7 33/11/7 38/13/7 37/13/7
f 33/11/8 36/12/8 39/14/8 38/13/8
f 36/12/9 34/12/9 40/14/9 39/14/9
f 34/12/10 31/11/10 37/13/10 40/14/10
f 32/11/7 31/11/7 42/13/7 41/13/7
f 31/11/11 34/12/11 43/14/11 42/13/11
f 34/12/9 35/12/9 44/14/9 43/14/9
f 35/12/12 32/11/12 41/13/12 44/14/12
f 47/15/13 48/16/13 50/17/13 49/18/13
f 49/18/14 50/17/14 52/19/14 51/20/14
f 51/20/15 52/19/15 54/21/15 53/22/15
f 53/22/16 54/21/16 56/23/16 55/24/16
f 55/24/17 56/23/17 58/25/17 57/26/17
f 57/26/18 58/25/18 60/27/18 59/28/18
f 59/28/19 60/27/19 62/25/19 61/29/19
f 61/29/20 62/25/20 64/23/20 63/30/20
f 63/30/21 64/23/21 66/21/21 65/31/21
f 65/31/22 66/21/22 68/19/22 67/32/22
f 67/32/23 68/19/23 70/17/23 69/33/23
f 69/33/24 70/17/24 46/34/24 45/35/24
f 70/36/5 68/37/5 94/38/5 95/39/5
f 72/40/6 83/40/6 82/41/6 81/42/6 80/43/6 79/44/6 78/45/6 77/46/6 76/45/6 75/44/6 74/43/6 73/42/6 71/41/6
f 60/47/5 58/48/5 89/49/5 90/50/5
f 50/51/5 48/52/5 85/53/5 84/54/5
f 48/52/3 46/55/3 83/56/3 72/57/3
f 71/58/6 73/59/6 99/60/6 97/61/6
f 79/62/6 80/63/6 106/64/6 105/65/6
f 72/57/6 71/58/6 97/61/6 98/66/6
f 64/67/5 62/48/5 91/49/5 92/68/5
f 54/69/5 52/70/5 86/71/5 87/72/5
f 78/73/6 79/62/6 105/65/6 104/74/6
f 77/75/6 78/73/6 104/74/6 103/76/6
f 68/37/5 66/77/5 93/78/5 94/38/5
f 58/48/5 56/67/5 88/68/5 89/49/5
f 86/71/14 84/54/14 97/61/14 99/60/14
f 91/49/19 90/50/19 103/76/19 104/74/19
f 96/79/25 95/39/25 108/80/25 109/81/25
f 89/49/17 88/68/17 101/82/17 102/83/17
f 94/38/22 93/78/22 106/64/22 107/84/22
f 87/72/15 86/71/15 99/60/15 100/85/15
f 92/68/20 91/49/20 104/74/20 105/65/20
f 84/54/26 85/53/26 98/66/26 97/61/26
f 90/50/18 89/49/18 102/83/18 103/76/18
f 95/39/23 94/38/23 107/84/23 108/80/23
f 88/68/16 87/72/16 100/85/16 101/82/16
f 93/78/21 92/68/21 105/65/21 106/64/21
f 80/63/6 81/86/6 107/84/6 106/64/6
f 73/59/6 74/87/6 100/85/6 99/60/6
f 81/86/6 82/88/6 108/80/6 107/84/6
f 56/67/5 54/69/5 87/72/5 88/68/5
f 66/77/5 64/67/5 92/68/5 93/78/5
f 74/87/6 75/89/6 101/82/6 100/85/6
f 83/56/27 46/55/27 96/79/27 109/81/27
f 82/88/6 83/56/6 109/81/6 108/80/6
f 75/89/6 76/90/6 102/83/6 101/82/6
f 52/70/5 50/51/5 84/54/5 86/71/5
f 48/52/28 72/57/28 98/66/28 85/53/28
f 62/48/5 60/47/5 90/50/5 91/49/5
f 46/55/5 70/36/5 95/39/5 96/79/5
f 76/90/6 77/75/6 103/76/6 102/83/6
f 110/91/29 111/92/29 113/93/29 112/94/29
f 112/94/3 113/93/3 115/93/3 114/94/3
f 114/94/30 115/93/30 117/92/30 116/91/30
f 116/91/31 117/92/31 119/95/31 118/96/31
f 113/93/6 111/92/6 121/95/6 119/95/6 117/92/6 115/93/6
f 136/97/2 134/98/2 128/99/2 129/100/2
f 120/96/32 121/95/32 111/92/32 110/91/32
f 110/91/5 112/94/5 114/94/5 116/91/5 118/96/5 120/96/5
f 118/96/1 119/95/1 123/101/1 122/102/1
f 119/95/1 121/95/1 124/101/1 123/101/1
f 121/95/1 120/96/1 125/102/1 124/101/1
f 120/96/1 118/96/1 122/102/1 125/102/1
f 127/99/1 126/100/1 129/100/1 128/99/1
f 134/98/5 135/98/5 127/99/5 128/99/5
f 137/97/6 136/97/6 129/100/6 126/100/6
f 135/98/4 137/97/4 126/100/4 127/99/4
f 122/102/33 123/101/33 133/103/33 132/104/33
f 123/101/34 124/101/34 131/103/34 133/103/34
f 125/102/35 122/102/35 132/104/35 130/104/35
f 124/101/36 125/102/36 130/104/36 131/103/36
f 132/104/37 133/103/37 137/97/37 135/98/37
f 133/103/38 131/103/38 136/97/38 137/97/38
f 130/104/39 132/104/39 135/98/39 134/98/39
f 131/103/40 130/104/40 134/98/40 136/97/40
f 138/105/41 139/106/41 141/107/41 140/108/41
f 140/108/42 141/107/42 143/109/42 142/110/42
f 142/110/43 143/109/43 145/111/43 144/112/43
f 144/112/44 145/111/44 147/113/44 146/114/44
f 141/107/6 139/106/6 149/115/6 147/113/6 145/111/6 143/109/6
f 164/116/45 162/117/45 156/118/45 157/119/45
f 148/120/46 149/115/46 139/106/46 138/105/46
f 138/105/5 140/108/5 142/110/5 144/112/5 146/114/5 148/120/5
f 146/114/47 147/113/47 151/121/47 150/122/47
f 147/113/47 149/115/47 152/123/47 151/121/47
f 149/115/47 148/120/47 153/124/47 152/123/47
f 148/120/47 146/114/47 150/122/47 153/124/47
f 155/125/47 154/126/47 157/119/47 156/118/47
f 162/117/5 163/127/5 155/125/5 156/118/5
f 165/128/6 164/116/6 157/119/6 154/126/6
f 163/127/48 165/128/48 154/126/48 155/125/48
f 150/122/49 151/121/49 161/129/49 160/130/49
f 151/121/50 152/123/50 159/131/50 161/129/50
f 153/124/51 150/122/51 160/130/51 158/132/51
f 152/123/52 153/124/52 158/132/52 159/131/52
f 160/130/53 161/129/53 165/128/53 163/127/53
f 161/129/54 159/131/54 164/116/54 165/128/54
f 158/132/55 160/130/55 163/127/55 162/117/55
f 159/131/56 158/132/56 162/117/56 164/116/56
