# Blender 5.0.0
# www.blender.org
mtllib map_default_wall.mtl
o Wall_breakable
v -0.000000 0.000000 -0.232280
v 0.000000 0.000000 0.232280
v -2.000000 0.000000 -0.232280
v -2.000000 0.000000 0.232281
v -0.000000 7.380227 -0.232280
v 0.000000 7.380227 0.232280
v -2.000000 7.380227 0.232281
v -2.000000 7.380227 -0.232280
v -4.000000 0.000000 -0.232279
v -4.000000 0.000000 0.232282
v -4.000000 7.380227 0.232282
v -4.000000 7.380227 -0.232279
vn -0.0000 -1.0000 -0.0000
vn -0.0000 1.0000 -0.0000
vn -0.0000 -0.0000 -1.0000
vn -0.0000 -0.0000 1.0000
vt 0.951653 0.016547
vt 0.969115 0.016547
vt 0.969115 0.121331
vt 0.951653 0.121331
s 0
g Wall_breakable_MasterMaterial
usemtl MasterMaterial
f 2/1/1 4/2/1 3/2/1 1/1/1
f 7/3/2 6/4/2 5/4/2 8/3/2
f 1/1/3 3/2/3 8/3/3 5/4/3
f 2/1/4 6/4/4 7/3/4 4/2/4
f 4/1/1 10/2/1 9/2/1 3/1/1
f 11/3/2 7/4/2 8/4/2 12/3/2
f 3/1/3 9/2/3 12/3/3 8/4/3
f 4/1/4 7/4/4 11/3/4 10/2/4
