# Blender 5.0.0
# www.blender.org
o Printer
v -1.000000 0.000000 1.000000
v -0.851564 0.321002 0.851564
v -1.000000 0.000000 -1.000000
v -0.851564 0.321002 -0.851564
v 1.965487 -0.000000 1.000000
v 1.817051 0.321002 0.851564
v 1.965487 -0.000000 -1.000000
v 1.817051 0.321002 -0.851564
v -1.000000 0.321002 1.000000
v -1.000000 0.321002 -1.000000
v 1.965487 0.321002 -1.000000
v 1.965487 0.321002 1.000000
v -0.851564 2.043035 0.851564
v -0.851564 2.043035 -0.851564
v 1.817051 2.043035 -0.851564
v 1.817051 2.043035 0.851564
v -0.923627 2.043035 0.892178
v -0.923627 2.043035 -0.892178
v 1.889114 2.043035 -0.892178
v 1.889114 2.043035 0.892178
v -0.923627 2.564265 0.892178
v -0.923627 2.564265 -0.892178
v 1.889114 2.564265 -0.892178
v 1.889114 2.564265 0.892178
v -0.991143 2.564265 0.930229
v -0.991143 2.564265 -0.930229
v 1.956630 2.564265 -0.930229
v 1.956630 2.564265 0.930229
v -0.696689 3.159935 0.719464
v -0.696689 3.159935 -0.167787
v 1.956630 2.791440 -0.930229
v 1.956630 2.791440 0.930229
v -0.383591 3.551760 0.719464
v -0.383591 3.551760 -0.167787
v 1.956630 3.689671 -0.930229
v 1.956630 3.689671 0.930229
v -0.026343 3.791631 0.495808
v -0.026343 3.791631 -0.495808
v 1.709583 3.791631 -0.495808
v 1.709583 3.791631 0.495808
v -0.273390 3.791631 0.742855
v -0.273390 3.791631 -0.742855
v 1.956630 3.791631 -0.742855
v 1.956630 3.791631 0.742855
v -0.026343 3.976246 0.495808
v -0.026343 3.976246 -0.495808
v 1.709583 3.976246 -0.495808
v 1.709583 3.976246 0.495808
v -0.991143 2.791440 0.930229
v -0.991143 2.791440 -0.930229
v -0.273390 3.689671 0.930229
v -0.273390 3.689671 -0.930229
v -0.655943 3.127376 0.719464
v -0.655943 3.127376 -0.167787
v -0.342846 3.519201 0.719464
v -0.342846 3.519201 -0.167787
v -1.000000 0.000000 0.000000
v -1.000000 0.321002 0.000000
v 1.965487 -0.000000 0.000000
v 1.965487 0.321002 0.000000
v -0.851564 0.321002 0.000000
v 1.817051 0.321002 0.000000
v -0.851564 2.043035 0.000000
v 1.817051 2.043035 0.000000
v -0.923627 2.043035 0.000000
v 1.889114 2.043035 0.000000
v -0.923627 2.564265 0.000000
v 1.889114 2.564265 0.000000
v -0.991143 2.564265 0.000000
v 1.956630 2.564265 0.000000
v -0.991143 2.791440 0.000000
v 1.956630 2.791440 0.000000
v -0.273390 3.689671 0.000000
v 1.956630 3.689671 0.000000
v -0.273390 3.791631 0.000000
v 1.956630 3.791631 0.000000
v -0.026343 3.791631 0.000000
v 1.709583 3.791631 -0.000000
v -0.026343 3.976246 -0.198911
v 1.709583 3.976246 -0.198911
v -0.696689 3.159935 0.275838
v -0.383591 3.551760 0.275838
v -0.655943 3.127376 0.275838
v -0.342846 3.519201 0.275838
v -0.026343 4.083624 -0.198911
v -0.026343 4.083624 -0.495808
v 1.709583 4.083624 -0.495808
v 1.709583 4.083624 -0.198911
v -0.025904 4.497800 0.370883
v -0.025904 4.533860 0.334895
v -0.025904 3.978082 -0.149885
v -0.025904 4.014143 -0.185873
v 1.709144 4.497800 0.370883
v 1.709144 4.533860 0.334895
v 1.709144 3.978082 -0.149885
v 1.709144 4.014143 -0.185873
v -0.982053 2.296136 0.446914
v -0.982053 2.368631 0.446914
v -0.982053 2.296136 -0.446914
v -0.982053 2.368631 -0.446914
v -0.865201 2.204539 0.733245
v -0.865201 2.414269 0.733245
v -0.865201 2.204539 -0.733245
v -0.865201 2.414269 -0.733245
v -0.982053 2.204539 -0.733245
v -0.982053 2.204539 0.733245
v -0.982053 2.414269 0.733245
v -0.982053 2.414269 -0.733245
v -1.032183 2.296136 -0.446914
v -1.032183 2.296136 0.446914
v -1.032183 2.368631 0.446914
v -1.032183 2.368631 -0.446914
v -0.895122 1.586860 0.292041
v -0.895122 1.659355 0.292041
v -0.895122 1.586860 -0.292041
v -0.895122 1.659355 -0.292041
v -0.778270 1.315161 0.733245
v -0.778270 1.704993 0.733245
v -0.778270 1.315161 -0.733245
v -0.778270 1.704993 -0.733245
v -0.895122 1.315161 -0.733245
v -0.895122 1.315161 0.733245
v -0.895122 1.704993 0.733245
v -0.895122 1.704993 -0.733245
v -0.920954 1.586860 -0.292041
v -0.920954 1.586860 0.292041
v -0.920954 1.659355 0.292041
v -0.920954 1.659355 -0.292041
v -0.895122 0.899359 0.292041
v -0.895122 0.971854 0.292041
v -0.895122 0.899359 -0.292041
v -0.895122 0.971854 -0.292041
v -0.778270 0.627659 0.733245
v -0.778270 1.017492 0.733245
v -0.778270 0.627659 -0.733245
v -0.778270 1.017492 -0.733245
v -0.895122 0.627659 -0.733245
v -0.895122 0.627659 0.733245
v -0.895122 1.017492 0.733245
v -0.895122 1.017492 -0.733245
v -0.920954 0.899359 -0.292041
v -0.920954 0.899359 0.292041
v -0.920954 0.971854 0.292041
v -0.920954 0.971854 -0.292041
v -0.551315 3.283686 -0.704379
v -0.626990 3.344261 -0.704379
v -0.551315 3.283686 -0.801312
v -0.626990 3.344261 -0.801312
v -0.490740 3.359361 -0.704379
v -0.566415 3.419935 -0.704379
v -0.490740 3.359361 -0.801312
v -0.566415 3.419935 -0.801312
v -0.673071 3.131579 -0.704379
v -0.748745 3.192154 -0.704379
v -0.673071 3.131579 -0.801312
v -0.748745 3.192154 -0.801312
v -0.612496 3.207254 -0.704379
v -0.688171 3.267829 -0.704379
v -0.612496 3.207254 -0.801312
v -0.688171 3.267829 -0.801312
v -0.551315 3.283686 -0.559582
v -0.626990 3.344261 -0.559582
v -0.551315 3.283686 -0.656515
v -0.626990 3.344261 -0.656515
v -0.490740 3.359361 -0.559582
v -0.566415 3.419935 -0.559582
v -0.490740 3.359361 -0.656515
v -0.566415 3.419935 -0.656515
v -0.673071 3.131579 -0.559582
v -0.748745 3.192154 -0.559582
v -0.673071 3.131579 -0.656515
v -0.748745 3.192154 -0.656515
v -0.612496 3.207254 -0.559582
v -0.688171 3.267829 -0.559582
v -0.612496 3.207254 -0.656515
v -0.688171 3.267829 -0.656515
v -0.551315 3.283686 -0.405980
v -0.626990 3.344261 -0.405980
v -0.551315 3.283686 -0.502913
v -0.626990 3.344261 -0.502913
v -0.490740 3.359361 -0.405980
v -0.566415 3.419935 -0.405980
v -0.490740 3.359361 -0.502913
v -0.566415 3.419935 -0.502913
v -0.673071 3.131579 -0.405980
v -0.748745 3.192154 -0.405980
v -0.673071 3.131579 -0.502913
v -0.748745 3.192154 -0.502913
v -0.612496 3.207254 -0.405980
v -0.688171 3.267829 -0.405980
v -0.612496 3.207254 -0.502913
v -0.688171 3.267829 -0.502913
v -0.551315 3.283686 -0.261183
v -0.626990 3.344261 -0.261183
v -0.551315 3.283686 -0.358116
v -0.626990 3.344261 -0.358116
v -0.490740 3.359361 -0.261183
v -0.566415 3.419935 -0.261183
v -0.490740 3.359361 -0.358116
v -0.566415 3.419935 -0.358116
v -0.673071 3.131579 -0.261183
v -0.748745 3.192154 -0.261183
v -0.673071 3.131579 -0.358116
v -0.748745 3.192154 -0.358116
v -0.612496 3.207254 -0.261183
v -0.688171 3.267829 -0.261183
v -0.612496 3.207254 -0.358116
v -0.688171 3.267829 -0.358116
v -0.453555 3.443509 0.873627
v -0.489730 3.477883 0.873627
v -0.453555 3.443509 0.776694
v -0.489730 3.477883 0.776694
v -0.395193 3.518883 0.873627
v -0.431367 3.553255 0.873627
v -0.395193 3.518883 0.776694
v -0.431367 3.553255 0.776694
v -0.531043 3.339093 0.909466
v -0.567217 3.373465 0.909466
v -0.531043 3.339093 0.812533
v -0.567218 3.373465 0.812533
v -0.472680 3.414465 0.909466
v -0.508855 3.448839 0.909466
v -0.472680 3.414465 0.812533
v -0.508855 3.448839 0.812533
vn -1.0000 -0.0000 -0.0000
vn -0.0000 -0.0000 -1.0000
vn 1.0000 -0.0000 -0.0000
vn -0.0000 -0.0000 1.0000
vn -0.0000 -1.0000 -0.0000
vn -0.0000 1.0000 -0.0000
vn -0.0000 0.8784 -0.4780
vn -0.0000 0.8784 0.4780
vn -0.7812 0.6243 -0.0000
vn -0.6243 -0.7812 -0.0000
vn 0.6243 0.7812 -0.0000
vn -0.0000 -0.7064 -0.7078
vn -0.0000 0.7064 0.7078
vn -0.0000 -0.7078 0.7064
vn -0.0000 0.7078 -0.7064
vn -0.6249 -0.7807 -0.0000
vn 0.6249 0.7807 -0.0000
vn 0.7807 -0.6249 -0.0000
vn -0.7807 0.6249 -0.0000
vn -0.6888 -0.7249 -0.0000
vn 0.6888 0.7249 -0.0000
vn 0.7907 -0.6122 -0.0000
vn -0.7907 0.6122 -0.0000
vt 0.004628 0.839464
vt 0.004628 0.851472
vt 0.021430 0.851472
vt 0.021430 0.839464
vt 0.005469 0.851472
vt 0.020589 0.851472
vt 0.020589 0.915890
vt 0.005469 0.915890
vt 0.995817 0.406754
vt 0.996215 0.406754
vt 0.980698 0.406754
vt 0.980698 0.425288
vt 0.981095 0.406754
vt 0.005061 0.935389
vt 0.020997 0.935389
vt 0.021380 0.935389
vt 0.004678 0.935389
vt 0.996215 0.425288
vt 0.021380 0.943887
vt 0.004678 0.943887
vt 0.021380 0.977488
vt 0.008745 0.977488
vt 0.008745 0.981302
vt 0.021380 0.981302
vt 0.008120 0.972329
vt 0.006346 0.957672
vt 0.006577 0.956454
vt 0.008351 0.971111
vt 0.995225 0.468930
vt 0.995225 0.475495
vt 0.010144 0.981302
vt 0.019980 0.981302
vt 0.393375 0.121201
vt 0.393206 0.030449
vt 0.412440 0.030321
vt 0.412609 0.121074
vt 0.985648 0.468930
vt 0.985648 0.475495
vt 0.299936 0.571363
vt 0.299936 0.603535
vt 0.282581 0.603535
vt 0.282581 0.571363
vt 0.299936 0.539191
vt 0.282581 0.539191
vt 0.995225 0.479313
vt 0.985648 0.479313
vt 0.985650 0.494040
vt 0.985650 0.495322
vt 0.985650 0.476842
vt 0.985650 0.475560
vt 0.995222 0.476842
vt 0.995222 0.475560
vt 0.995222 0.495322
vt 0.995222 0.494040
vt 0.045569 0.321761
vt 0.045569 0.319020
vt 0.980376 0.412497
vt 0.980376 0.419954
vt 0.981020 0.419954
vt 0.981020 0.412497
vt 0.375000 0.500000
vt 0.625000 0.500000
vt 0.625000 0.750000
vt 0.375000 0.750000
vt 0.980376 0.415754
vt 0.980376 0.418332
vt 0.034215 0.319020
vt 0.034215 0.321761
vt 0.043601 0.294946
vt 0.043601 0.292205
vt 0.980855 0.380873
vt 0.980855 0.394734
vt 0.981500 0.394734
vt 0.981500 0.380873
vt 0.980855 0.390534
vt 0.980855 0.393112
vt 0.036182 0.292205
vt 0.036182 0.294946
vt 0.043601 0.268954
vt 0.043601 0.266213
vt 0.980855 0.356427
vt 0.980855 0.370288
vt 0.981500 0.370288
vt 0.981500 0.356427
vt 0.980855 0.366088
vt 0.980855 0.368666
vt 0.036182 0.266213
vt 0.036182 0.268954
vt 0.992441 0.393973
vt 0.979230 0.394163
vt 0.979360 0.413473
vt 0.992571 0.413282
vt 0.992179 0.355161
vt 0.978968 0.355351
vt 0.979099 0.374660
vt 0.992310 0.374470
vt 0.406384 0.349043
vt 0.398180 0.358568
vt 0.398180 0.358568
vt 0.398783 0.489716
vt 0.406987 0.480192
vt 0.326026 0.217196
vt 0.311745 0.220642
vt 0.310878 0.315710
vt 0.325158 0.312264
s 0
f 57/1/1 58/2/1 10/2/1 3/1/1
f 3/1/2 10/2/2 11/3/2 7/4/2
f 59/4/3 60/3/3 12/3/3 5/4/3
f 5/4/4 12/3/4 9/2/4 1/1/4
f 57/1/5 59/4/5 5/4/5 1/1/5
f 2/5/4 6/6/4 16/7/4 13/8/4
f 61/5/6 4/5/6 10/2/6 58/2/6
f 4/5/6 8/6/6 11/3/6 10/2/6
f 62/6/6 6/6/6 12/3/6 60/3/6
f 6/6/6 2/5/6 9/2/6 12/3/6
f 64/9/5 15/9/5 19/10/5 66/10/5
f 8/6/2 4/5/2 14/8/2 15/7/2
f 62/6/3 8/6/3 15/7/3 64/7/3
f 61/5/1 2/5/1 13/8/1 63/8/1
f 65/11/1 17/11/1 21/12/1 67/12/1
f 63/13/5 13/13/5 17/11/5 65/11/5
f 13/13/5 16/9/5 20/10/5 17/11/5
f 15/9/5 14/13/5 18/11/5 19/10/5
f 21/14/5 24/15/5 28/16/5 25/17/5
f 17/11/4 20/10/4 24/18/4 21/12/4
f 19/10/2 18/11/2 22/12/2 23/18/2
f 66/10/3 19/10/3 23/18/3 68/18/3
f 70/16/3 27/16/3 31/19/3 72/19/3
f 23/15/5 22/14/5 26/17/5 27/16/5
f 68/15/5 23/15/5 27/16/5 70/16/5
f 67/14/5 21/14/5 25/17/5 69/17/5
f 49/20/4 32/19/4 36/21/4 51/22/4
f 69/17/1 25/17/1 49/20/1 71/20/1
f 25/17/4 28/16/4 32/19/4 49/20/4
f 27/16/2 26/17/2 50/20/2 31/19/2
f 35/21/7 52/22/7 42/23/7 43/24/7
f 31/19/2 50/20/2 52/22/2 35/21/2
f 72/19/3 31/19/3 35/21/3 74/21/3
f 34/25/4 30/26/4 54/27/4 56/28/4
f 78/29/3 39/29/3 47/30/3 80/30/3
f 74/21/3 35/21/3 43/24/3 76/24/3
f 73/22/1 51/22/1 41/23/1 75/23/1
f 51/22/8 36/21/8 44/24/8 41/23/8
f 77/31/6 38/31/6 42/23/6 75/23/6
f 38/31/6 39/32/6 43/24/6 42/23/6
f 78/32/6 40/32/6 44/24/6 76/24/6
f 40/32/6 37/31/6 41/23/6 44/24/6
f 80/33/6 79/34/6 45/35/6 48/36/6
f 77/37/1 37/37/1 45/38/1 79/38/1
f 37/37/4 40/29/4 48/30/4 45/38/4
f 39/29/2 38/37/2 46/38/2 47/30/2
f 81/26/9 30/26/9 50/20/9 71/20/9
f 82/25/9 33/25/9 51/22/9 73/22/9
f 33/25/9 29/26/9 49/20/9 51/22/9
f 30/26/9 34/25/9 52/22/9 50/20/9
f 83/39/9 53/40/9 55/41/9 84/42/9
f 82/25/10 34/25/10 56/28/10 84/28/10
f 29/26/2 33/25/2 55/28/2 53/27/2
f 81/26/11 29/26/11 53/27/11 83/27/11
f 30/26/11 81/26/11 83/27/11 54/27/11
f 33/25/10 82/25/10 84/28/10 55/28/10
f 54/43/9 83/39/9 84/42/9 56/44/9
f 34/25/9 82/25/9 73/22/9 52/22/9
f 29/26/9 81/26/9 71/20/9 49/20/9
f 38/37/1 77/37/1 79/38/1 46/38/1
f 80/30/3 47/30/3 87/45/3 88/45/3
f 39/32/6 78/32/6 76/24/6 43/24/6
f 37/31/6 77/31/6 75/23/6 41/23/6
f 52/22/1 73/22/1 75/23/1 42/23/1
f 36/21/3 74/21/3 76/24/3 44/24/3
f 40/29/3 78/29/3 80/30/3 48/30/3
f 32/19/3 72/19/3 74/21/3 36/21/3
f 26/17/1 69/17/1 71/20/1 50/20/1
f 22/14/5 67/14/5 69/17/5 26/17/5
f 24/15/5 68/15/5 70/16/5 28/16/5
f 28/16/3 70/16/3 72/19/3 32/19/3
f 20/10/3 66/10/3 68/18/3 24/18/3
f 14/13/5 63/13/5 65/11/5 18/11/5
f 18/11/1 65/11/1 67/12/1 22/12/1
f 4/5/1 61/5/1 63/8/1 14/8/1
f 6/6/3 62/6/3 64/7/3 16/7/3
f 16/9/5 64/9/5 66/10/5 20/10/5
f 8/6/6 62/6/6 60/3/6 11/3/6
f 2/5/6 61/5/6 58/2/6 9/2/6
f 3/1/5 7/4/5 59/4/5 57/1/5
f 7/4/3 11/3/3 60/3/3 59/4/3
f 1/1/1 9/2/1 58/2/1 57/1/1
f 87/45/6 86/46/6 85/46/6 88/45/6
f 79/38/4 80/30/4 88/45/4 85/46/4
f 47/30/2 46/38/2 86/46/2 87/45/2
f 46/38/1 79/38/1 85/46/1 86/46/1
f 89/47/1 90/48/1 92/49/1 91/50/1
f 91/50/12 92/49/12 96/51/12 95/52/12
f 95/52/3 96/51/3 94/53/3 93/54/3
f 93/54/13 94/53/13 90/48/13 89/47/13
f 91/50/14 95/52/14 93/54/14 89/47/14
f 96/51/15 92/49/15 90/48/15 94/53/15
f 100/55/2 99/56/2 109/56/2 112/55/2
f 105/57/2 108/58/2 104/59/2 103/60/2
f 103/61/3 104/62/3 102/63/3 101/64/3
f 101/60/4 102/59/4 107/58/4 106/57/4
f 105/57/5 103/60/5 101/60/5 106/57/5
f 104/59/6 108/58/6 107/58/6 102/59/6
f 97/65/1 99/65/1 105/57/1 106/57/1
f 98/66/1 97/65/1 106/57/1 107/58/1
f 100/66/1 98/66/1 107/58/1 108/58/1
f 99/65/1 100/66/1 108/58/1 105/57/1
f 110/67/1 111/68/1 112/55/1 109/56/1
f 97/67/4 98/68/4 111/68/4 110/67/4
f 98/68/6 100/55/6 112/55/6 111/68/6
f 99/56/5 97/67/5 110/67/5 109/56/5
f 116/69/2 115/70/2 125/70/2 128/69/2
f 121/71/2 124/72/2 120/73/2 119/74/2
f 119/61/3 120/62/3 118/63/3 117/64/3
f 117/74/4 118/73/4 123/72/4 122/71/4
f 121/71/5 119/74/5 117/74/5 122/71/5
f 120/73/6 124/72/6 123/72/6 118/73/6
f 113/75/1 115/75/1 121/71/1 122/71/1
f 114/76/1 113/75/1 122/71/1 123/72/1
f 116/76/1 114/76/1 123/72/1 124/72/1
f 115/75/1 116/76/1 124/72/1 121/71/1
f 126/77/1 127/78/1 128/69/1 125/70/1
f 113/77/4 114/78/4 127/78/4 126/77/4
f 114/78/6 116/69/6 128/69/6 127/78/6
f 115/70/5 113/77/5 126/77/5 125/70/5
f 132/79/2 131/80/2 141/80/2 144/79/2
f 137/81/2 140/82/2 136/83/2 135/84/2
f 135/61/3 136/62/3 134/63/3 133/64/3
f 133/84/4 134/83/4 139/82/4 138/81/4
f 137/81/5 135/84/5 133/84/5 138/81/5
f 136/83/6 140/82/6 139/82/6 134/83/6
f 129/85/1 131/85/1 137/81/1 138/81/1
f 130/86/1 129/85/1 138/81/1 139/82/1
f 132/86/1 130/86/1 139/82/1 140/82/1
f 131/85/1 132/86/1 140/82/1 137/81/1
f 142/87/1 143/88/1 144/79/1 141/80/1
f 129/87/4 130/88/4 143/88/4 142/87/4
f 130/88/6 132/79/6 144/79/6 143/88/6
f 131/80/5 129/87/5 142/87/5 141/80/5
f 145/89/16 146/90/16 148/90/16 147/89/16
f 147/89/2 148/90/2 152/91/2 151/92/2
f 151/92/17 152/91/17 150/91/17 149/92/17
f 149/92/4 150/91/4 146/90/4 145/89/4
f 147/89/18 151/92/18 149/92/18 145/89/18
f 152/91/19 148/90/19 146/90/19 150/91/19
f 153/93/16 154/94/16 156/94/16 155/93/16
f 155/93/2 156/94/2 160/95/2 159/96/2
f 159/96/17 160/95/17 158/95/17 157/96/17
f 157/96/4 158/95/4 154/94/4 153/93/4
f 155/93/18 159/96/18 157/96/18 153/93/18
f 160/95/19 156/94/19 154/94/19 158/95/19
f 161/89/16 162/90/16 164/90/16 163/89/16
f 163/89/2 164/90/2 168/91/2 167/92/2
f 167/92/17 168/91/17 166/91/17 165/92/17
f 165/92/4 166/91/4 162/90/4 161/89/4
f 163/89/18 167/92/18 165/92/18 161/89/18
f 168/91/19 164/90/19 162/90/19 166/91/19
f 169/93/16 170/94/16 172/94/16 171/93/16
f 171/93/2 172/94/2 176/95/2 175/96/2
f 175/96/17 176/95/17 174/95/17 173/96/17
f 173/96/4 174/95/4 170/94/4 169/93/4
f 171/93/18 175/96/18 173/96/18 169/93/18
f 176/95/19 172/94/19 170/94/19 174/95/19
f 177/89/16 178/90/16 180/90/16 179/89/16
f 179/89/2 180/90/2 184/91/2 183/92/2
f 183/92/17 184/91/17 182/91/17 181/92/17
f 181/92/4 182/91/4 178/90/4 177/89/4
f 179/89/18 183/92/18 181/92/18 177/89/18
f 184/91/19 180/90/19 178/90/19 182/91/19
f 185/93/16 186/94/16 188/94/16 187/93/16
f 187/93/2 188/94/2 192/95/2 191/96/2
f 191/96/17 192/95/17 190/95/17 189/96/17
f 189/96/4 190/95/4 186/94/4 185/93/4
f 187/93/18 191/96/18 189/96/18 185/93/18
f 192/95/19 188/94/19 186/94/19 190/95/19
f 193/89/16 194/90/16 196/90/16 195/89/16
f 195/89/2 196/90/2 200/91/2 199/92/2
f 199/92/17 200/91/17 198/91/17 197/92/17
f 197/92/4 198/91/4 194/90/4 193/89/4
f 195/89/18 199/92/18 197/92/18 193/89/18
f 200/91/19 196/90/19 194/90/19 198/91/19
f 201/93/16 202/94/16 204/94/16 203/93/16
f 203/93/2 204/94/2 208/95/2 207/96/2
f 207/96/17 208/95/17 206/95/17 205/96/17
f 205/96/4 206/95/4 202/94/4 201/93/4
f 203/93/18 207/96/18 205/96/18 201/93/18
f 208/95/19 204/94/19 202/94/19 206/95/19
f 209/97/20 210/98/20 212/99/20 211/97/20
f 211/97/2 212/99/2 216/100/2 215/101/2
f 215/101/21 216/100/21 214/100/21 213/101/21
f 213/101/4 214/100/4 210/98/4 209/97/4
f 211/97/22 215/101/22 213/101/22 209/97/22
f 216/100/23 212/99/23 210/98/23 214/100/23
f 217/102/20 218/103/20 220/103/20 219/102/20
f 219/102/2 220/103/2 224/104/2 223/105/2
f 223/105/21 224/104/21 222/104/21 221/105/21
f 221/105/4 222/104/4 218/103/4 217/102/4
f 219/102/22 223/105/22 221/105/22 217/102/22
f 224/104/23 220/103/23 218/103/23 222/104/23
