# Blender 5.0.1
# www.blender.org
o Table
v -1.315969 1.632260 0.000000
v -1.315969 1.895454 0.000000
v 0.000000 1.632260 3.286942
v 0.000000 1.895454 3.286942
v 0.000000 1.895454 0.000000
v 0.000000 1.632260 0.000000
v -1.052070 1.402883 2.901807
v -1.035722 1.683162 2.885458
v -1.052070 1.402883 2.659058
v -1.035722 1.683162 2.675407
v -0.809321 1.402883 2.901807
v -0.825670 1.683162 2.885458
v -0.809321 1.402883 2.659058
v -0.825670 1.683162 2.675407
v -1.052070 1.067286 2.659058
v -1.052070 1.067286 2.901807
v -0.809321 1.067286 2.659058
v -0.809321 1.067286 2.901807
v -1.074815 1.473111 2.636313
v -1.074815 1.473111 2.924552
v -0.786577 1.473111 2.636313
v -0.786577 1.473111 2.924552
v -1.074815 0.997057 2.636313
v -1.074815 0.997057 2.924552
v -0.786577 0.997057 2.636313
v -0.786577 0.997057 2.924552
v -1.009088 0.748774 2.702040
v -1.009088 0.748774 2.858825
v -0.852304 0.748774 2.702040
v -0.852304 0.748774 2.858825
v -0.986309 0.238515 2.724820
v -0.986309 0.238515 2.836045
v -0.875084 0.238515 2.724820
v -0.875084 0.238515 2.836045
v -0.986309 0.125300 2.724820
v -0.986309 0.125300 2.836045
v -0.875084 0.125300 2.724820
v -0.875084 0.125300 2.836045
v -1.008670 0.238515 2.702458
v -1.008670 0.238515 2.858407
v -0.852722 0.238515 2.702458
v -0.852722 0.238515 2.858407
v -1.008670 0.125300 2.702458
v -1.008670 0.125300 2.858407
v -0.852722 0.125300 2.702458
v -0.852722 0.125300 2.858407
v -0.986309 -0.014049 2.724820
v -0.986309 -0.014049 2.836045
v -0.875084 -0.014049 2.724820
v -0.875084 -0.014049 2.836045
v -0.953648 1.632260 3.286942
v -1.315969 1.632260 2.924621
v -1.315969 1.895454 2.924621
v -0.953648 1.895454 3.286942
v 1.315969 1.632260 0.000000
v 1.315969 1.895454 0.000000
v 1.052070 1.402883 2.901807
v 1.035722 1.683162 2.885458
v 1.052070 1.402883 2.659058
v 1.035722 1.683162 2.675407
v 0.809321 1.402883 2.901807
v 0.825670 1.683162 2.885458
v 0.809321 1.402883 2.659058
v 0.825670 1.683162 2.675407
v 1.052070 1.067286 2.659058
v 1.052070 1.067286 2.901807
v 0.809321 1.067286 2.659058
v 0.809321 1.067286 2.901807
v 1.074815 1.473111 2.636313
v 1.074815 1.473111 2.924552
v 0.786577 1.473111 2.636313
v 0.786577 1.473111 2.924552
v 1.074815 0.997057 2.636313
v 1.074815 0.997057 2.924552
v 0.786577 0.997057 2.636313
v 0.786577 0.997057 2.924552
v 1.009088 0.748774 2.702040
v 1.009088 0.748774 2.858825
v 0.852304 0.748774 2.702040
v 0.852304 0.748774 2.858825
v 0.986309 0.238515 2.724820
v 0.986309 0.238515 2.836045
v 0.875084 0.238515 2.724820
v 0.875084 0.238515 2.836045
v 0.986309 0.125300 2.724820
v 0.986309 0.125300 2.836045
v 0.875084 0.125300 2.724820
v 0.875084 0.125300 2.836045
v 1.008670 0.238515 2.702458
v 1.008670 0.238515 2.858407
v 0.852722 0.238515 2.702458
v 0.852722 0.238515 2.858407
v 1.008670 0.125300 2.702458
v 1.008670 0.125300 2.858407
v 0.852722 0.125300 2.702458
v 0.852722 0.125300 2.858407
v 0.986309 -0.014049 2.724820
v 0.986309 -0.014049 2.836045
v 0.875084 -0.014049 2.724820
v 0.875084 -0.014049 2.836045
v 0.953648 1.632260 3.286942
v 1.315969 1.632260 2.924621
v 1.315969 1.895454 2.924621
v 0.953648 1.895454 3.286942
v 0.000000 1.632260 -3.286942
v 0.000000 1.895454 -3.286942
v -1.052070 1.402883 -2.901807
v -1.035722 1.683162 -2.885458
v -1.052070 1.402883 -2.659058
v -1.035722 1.683162 -2.675407
v -0.809321 1.402883 -2.901807
v -0.825670 1.683162 -2.885458
v -0.809321 1.402883 -2.659058
v -0.825670 1.683162 -2.675407
v -1.052070 1.067286 -2.659058
v -1.052070 1.067286 -2.901807
v -0.809321 1.067286 -2.659058
v -0.809321 1.067286 -2.901807
v -1.074815 1.473111 -2.636313
v -1.074815 1.473111 -2.924552
v -0.786577 1.473111 -2.636313
v -0.786577 1.473111 -2.924552
v -1.074815 0.997057 -2.636313
v -1.074815 0.997057 -2.924552
v -0.786577 0.997057 -2.636313
v -0.786577 0.997057 -2.924552
v -1.009088 0.748774 -2.702040
v -1.009088 0.748774 -2.858825
v -0.852304 0.748774 -2.702040
v -0.852304 0.748774 -2.858825
v -0.986309 0.238515 -2.724820
v -0.986309 0.238515 -2.836045
v -0.875084 0.238515 -2.724820
v -0.875084 0.238515 -2.836045
v -0.986309 0.125300 -2.724820
v -0.986309 0.125300 -2.836045
v -0.875084 0.125300 -2.724820
v -0.875084 0.125300 -2.836045
v -1.008670 0.238515 -2.702458
v -1.008670 0.238515 -2.858407
v -0.852722 0.238515 -2.702458
v -0.852722 0.238515 -2.858407
v -1.008670 0.125300 -2.702458
v -1.008670 0.125300 -2.858407
v -0.852722 0.125300 -2.702458
v -0.852722 0.125300 -2.858407
v -0.986309 -0.014049 -2.724820
v -0.986309 -0.014049 -2.836045
v -0.875084 -0.014049 -2.724820
v -0.875084 -0.014049 -2.836045
v -0.953648 1.632260 -3.286942
v -1.315969 1.632260 -2.924621
v -1.315969 1.895454 -2.924621
v -0.953648 1.895454 -3.286942
v 1.052070 1.402883 -2.901807
v 1.035722 1.683162 -2.885458
v 1.052070 1.402883 -2.659058
v 1.035722 1.683162 -2.675407
v 0.809321 1.402883 -2.901807
v 0.825670 1.683162 -2.885458
v 0.809321 1.402883 -2.659058
v 0.825670 1.683162 -2.675407
v 1.052070 1.067286 -2.659058
v 1.052070 1.067286 -2.901807
v 0.809321 1.067286 -2.659058
v 0.809321 1.067286 -2.901807
v 1.074815 1.473111 -2.636313
v 1.074815 1.473111 -2.924552
v 0.786577 1.473111 -2.636313
v 0.786577 1.473111 -2.924552
v 1.074815 0.997057 -2.636313
v 1.074815 0.997057 -2.924552
v 0.786577 0.997057 -2.636313
v 0.786577 0.997057 -2.924552
v 1.009088 0.748774 -2.702040
v 1.009088 0.748774 -2.858825
v 0.852304 0.748774 -2.702040
v 0.852304 0.748774 -2.858825
v 0.986309 0.238515 -2.724820
v 0.986309 0.238515 -2.836045
v 0.875084 0.238515 -2.724820
v 0.875084 0.238515 -2.836045
v 0.986309 0.125300 -2.724820
v 0.986309 0.125300 -2.836045
v 0.875084 0.125300 -2.724820
v 0.875084 0.125300 -2.836045
v 1.008670 0.238515 -2.702458
v 1.008670 0.238515 -2.858407
v 0.852722 0.238515 -2.702458
v 0.852722 0.238515 -2.858407
v 1.008670 0.125300 -2.702458
v 1.008670 0.125300 -2.858407
v 0.852722 0.125300 -2.702458
v 0.852722 0.125300 -2.858407
v 0.986309 -0.014049 -2.724820
v 0.986309 -0.014049 -2.836045
v 0.875084 -0.014049 -2.724820
v 0.875084 -0.014049 -2.836045
v 0.953648 1.632260 -3.286942
v 1.315969 1.632260 -2.924621
v 1.315969 1.895454 -2.924621
v 0.953648 1.895454 -3.286942
vn -0.9831 0.1830 -0.0000
vn -0.0000 0.1830 -0.9831
vn 0.9831 0.1830 -0.0000
vn -0.0000 0.1830 0.9831
vn -0.0000 -0.0000 1.0000
vn -0.0000 1.0000 -0.0000
vn 0.9667 -0.2559 -0.0000
vn -0.0000 -0.0000 -1.0000
vn -1.0000 -0.0000 -0.0000
vn 1.0000 -0.0000 -0.0000
vn -0.9514 -0.3081 -0.0000
vn -0.0000 -0.3081 -0.9514
vn 0.9514 -0.3081 -0.0000
vn -0.0000 -0.3081 0.9514
vn -0.9514 0.3081 -0.0000
vn -0.0000 0.3081 -0.9514
vn 0.9514 0.3081 -0.0000
vn -0.0000 0.3081 0.9514
vn 0.9990 -0.0446 -0.0000
vn -0.9667 -0.2559 -0.0000
vn -0.0000 -0.2559 0.9667
vn -0.0000 -0.2559 -0.9667
vn -0.9990 -0.0446 -0.0000
vn -0.0000 -0.0446 0.9990
vn -0.0000 -0.0446 -0.9990
vn -0.0000 -1.0000 -0.0000
vn -0.7071 -0.0000 0.7071
vn 0.9513 -0.3081 -0.0000
vn 0.7071 -0.0000 0.7071
vn -0.7071 -0.0000 -0.7071
vn 0.7071 -0.0000 -0.7071
vt 0.927786 0.114821
vt 0.928249 0.129997
vt 0.928249 0.129997
vt 0.930741 0.129997
vt 0.931205 0.114821
vt 0.930741 0.129997
vt 0.930935 0.109747
vt 0.928056 0.109747
vt 0.928056 0.085501
vt 0.930935 0.085501
vt 0.931205 0.080428
vt 0.931205 0.080428
vt 0.930425 0.062490
vt 0.927786 0.080428
vt 0.927786 0.080428
vt 0.930155 0.025626
vt 0.928565 0.062490
vt 0.928836 0.025626
vt 0.928570 0.025626
vt 0.930421 0.025626
vt 0.930155 0.017446
vt 0.928836 0.017446
vt 0.928836 0.007379
vt 0.930155 0.007379
vt 0.928570 0.017446
vt 0.930421 0.017446
vt 0.929918 0.126319
vt 0.929918 0.145334
vt 0.925620 0.145334
vt 0.925620 0.126319
vt 0.925620 0.126319
vt 0.941231 0.126319
vt 0.941231 0.126319
vt 0.925620 0.145334
vt 0.941231 0.145334
vt 0.941231 0.145334
s 0
f 20/1/1 8/2/1 10/3/1 19/1/1
f 19/1/2 10/3/2 14/4/2 21/5/2
f 21/5/3 14/4/3 12/6/3 22/5/3
f 22/5/4 12/6/4 8/2/4 20/1/4
f 11/7/5 7/8/5 16/9/5 18/10/5
f 14/4/6 10/3/6 8/2/6 12/6/6
f 25/11/7 26/12/7 30/13/7 29/13/7
f 9/8/8 13/7/8 17/10/8 15/9/8
f 7/8/9 9/8/9 15/9/9 16/9/9
f 13/7/10 11/7/10 18/10/10 17/10/10
f 9/8/11 7/8/11 20/1/11 19/1/11
f 13/7/12 9/8/12 19/1/12 21/5/12
f 11/7/13 13/7/13 21/5/13 22/5/13
f 7/8/14 11/7/14 22/5/14 20/1/14
f 16/9/15 15/9/15 23/14/15 24/15/15
f 15/9/16 17/10/16 25/11/16 23/14/16
f 17/10/17 18/10/17 26/12/17 25/11/17
f 18/10/18 16/9/18 24/15/18 26/12/18
f 29/13/19 30/13/19 34/16/19 33/16/19
f 24/15/20 23/14/20 27/17/20 28/17/20
f 26/12/21 24/15/21 28/17/21 30/13/21
f 23/14/22 25/11/22 29/13/22 27/17/22
f 34/16/6 32/18/6 40/19/6 42/20/6
f 28/17/23 27/17/23 31/18/23 32/18/23
f 30/13/24 28/17/24 32/18/24 34/16/24
f 27/17/25 29/13/25 33/16/25 31/18/25
f 38/21/5 36/22/5 48/23/5 50/24/5
f 37/21/26 35/22/26 43/25/26 45/26/26
f 32/18/6 31/18/6 39/19/6 40/19/6
f 36/22/26 38/21/26 46/26/26 44/25/26
f 40/19/9 39/19/9 43/25/9 44/25/9
f 42/20/5 40/19/5 44/25/5 46/26/5
f 39/19/8 41/20/8 45/26/8 43/25/8
f 41/20/10 42/20/10 46/26/10 45/26/10
f 31/18/6 33/16/6 41/20/6 39/19/6
f 38/21/26 37/21/26 45/26/26 46/26/26
f 35/22/26 36/22/26 44/25/26 43/25/26
f 33/16/6 34/16/6 42/20/6 41/20/6
f 47/23/26 49/24/26 50/24/26 48/23/26
f 35/22/8 37/21/8 49/24/8 47/23/8
f 37/21/10 38/21/10 50/24/10 49/24/10
f 36/22/9 35/22/9 47/23/9 48/23/9
f 51/27/27 54/28/27 53/29/27 52/30/27
f 1/31/26 6/32/26 3/33/26 51/27/26 52/30/26
f 52/30/9 53/29/9 2/34/9 1/31/9
f 3/33/5 4/35/5 54/28/5 51/27/5
f 5/36/6 2/34/6 53/29/6 54/28/6 4/35/6
f 70/1/3 69/1/3 60/3/3 58/2/3
f 69/1/2 71/5/2 64/4/2 60/3/2
f 71/5/1 72/5/1 62/6/1 64/4/1
f 72/5/4 70/1/4 58/2/4 62/6/4
f 61/7/5 68/10/5 66/9/5 57/8/5
f 64/4/6 62/6/6 58/2/6 60/3/6
f 75/11/20 79/13/20 80/13/20 76/12/20
f 59/8/8 65/9/8 67/10/8 63/7/8
f 57/8/10 66/9/10 65/9/10 59/8/10
f 63/7/9 67/10/9 68/10/9 61/7/9
f 59/8/28 69/1/28 70/1/28 57/8/28
f 63/7/12 71/5/12 69/1/12 59/8/12
f 61/7/11 72/5/11 71/5/11 63/7/11
f 57/8/14 70/1/14 72/5/14 61/7/14
f 66/9/17 74/15/17 73/14/17 65/9/17
f 65/9/16 73/14/16 75/11/16 67/10/16
f 67/10/15 75/11/15 76/12/15 68/10/15
f 68/10/18 76/12/18 74/15/18 66/9/18
f 79/13/23 83/16/23 84/16/23 80/13/23
f 74/15/7 78/17/7 77/17/7 73/14/7
f 76/12/21 80/13/21 78/17/21 74/15/21
f 73/14/22 77/17/22 79/13/22 75/11/22
f 84/16/6 92/20/6 90/19/6 82/18/6
f 78/17/19 82/18/19 81/18/19 77/17/19
f 80/13/24 84/16/24 82/18/24 78/17/24
f 77/17/25 81/18/25 83/16/25 79/13/25
f 88/21/5 100/24/5 98/23/5 86/22/5
f 87/21/26 95/26/26 93/25/26 85/22/26
f 82/18/6 90/19/6 89/19/6 81/18/6
f 86/22/26 94/25/26 96/26/26 88/21/26
f 90/19/10 94/25/10 93/25/10 89/19/10
f 92/20/5 96/26/5 94/25/5 90/19/5
f 89/19/8 93/25/8 95/26/8 91/20/8
f 91/20/9 95/26/9 96/26/9 92/20/9
f 81/18/6 89/19/6 91/20/6 83/16/6
f 88/21/26 96/26/26 95/26/26 87/21/26
f 85/22/26 93/25/26 94/25/26 86/22/26
f 83/16/6 91/20/6 92/20/6 84/16/6
f 97/23/26 98/23/26 100/24/26 99/24/26
f 85/22/8 97/23/8 99/24/8 87/21/8
f 87/21/9 99/24/9 100/24/9 88/21/9
f 86/22/10 98/23/10 97/23/10 85/22/10
f 101/27/29 102/30/29 103/29/29 104/28/29
f 55/31/26 102/30/26 101/27/26 3/33/26 6/32/26
f 102/30/10 55/31/10 56/34/10 103/29/10
f 3/33/5 101/27/5 104/28/5 4/35/5
f 5/36/6 4/35/6 104/28/6 103/29/6 56/34/6
f 120/1/1 119/1/1 110/3/1 108/2/1
f 119/1/4 121/5/4 114/4/4 110/3/4
f 121/5/3 122/5/3 112/6/3 114/4/3
f 122/5/2 120/1/2 108/2/2 112/6/2
f 111/7/8 118/10/8 116/9/8 107/8/8
f 114/4/6 112/6/6 108/2/6 110/3/6
f 125/11/7 129/13/7 130/13/7 126/12/7
f 109/8/5 115/9/5 117/10/5 113/7/5
f 107/8/9 116/9/9 115/9/9 109/8/9
f 113/7/10 117/10/10 118/10/10 111/7/10
f 109/8/11 119/1/11 120/1/11 107/8/11
f 113/7/14 121/5/14 119/1/14 109/8/14
f 111/7/13 122/5/13 121/5/13 113/7/13
f 107/8/12 120/1/12 122/5/12 111/7/12
f 116/9/15 124/15/15 123/14/15 115/9/15
f 115/9/18 123/14/18 125/11/18 117/10/18
f 117/10/17 125/11/17 126/12/17 118/10/17
f 118/10/16 126/12/16 124/15/16 116/9/16
f 129/13/19 133/16/19 134/16/19 130/13/19
f 124/15/20 128/17/20 127/17/20 123/14/20
f 126/12/22 130/13/22 128/17/22 124/15/22
f 123/14/21 127/17/21 129/13/21 125/11/21
f 134/16/6 142/20/6 140/19/6 132/18/6
f 128/17/23 132/18/23 131/18/23 127/17/23
f 130/13/25 134/16/25 132/18/25 128/17/25
f 127/17/24 131/18/24 133/16/24 129/13/24
f 138/21/8 150/24/8 148/23/8 136/22/8
f 137/21/26 145/26/26 143/25/26 135/22/26
f 132/18/6 140/19/6 139/19/6 131/18/6
f 136/22/26 144/25/26 146/26/26 138/21/26
f 140/19/9 144/25/9 143/25/9 139/19/9
f 142/20/8 146/26/8 144/25/8 140/19/8
f 139/19/5 143/25/5 145/26/5 141/20/5
f 141/20/10 145/26/10 146/26/10 142/20/10
f 131/18/6 139/19/6 141/20/6 133/16/6
f 138/21/26 146/26/26 145/26/26 137/21/26
f 135/22/26 143/25/26 144/25/26 136/22/26
f 133/16/6 141/20/6 142/20/6 134/16/6
f 147/23/26 148/23/26 150/24/26 149/24/26
f 135/22/5 147/23/5 149/24/5 137/21/5
f 137/21/10 149/24/10 150/24/10 138/21/10
f 136/22/9 148/23/9 147/23/9 135/22/9
f 151/27/30 152/30/30 153/29/30 154/28/30
f 1/31/26 152/30/26 151/27/26 105/33/26 6/32/26
f 152/30/9 1/31/9 2/34/9 153/29/9
f 105/33/8 151/27/8 154/28/8 106/35/8
f 5/36/6 106/35/6 154/28/6 153/29/6 2/34/6
f 168/1/3 156/2/3 158/3/3 167/1/3
f 167/1/4 158/3/4 162/4/4 169/5/4
f 169/5/1 162/4/1 160/6/1 170/5/1
f 170/5/2 160/6/2 156/2/2 168/1/2
f 159/7/8 155/8/8 164/9/8 166/10/8
f 162/4/6 158/3/6 156/2/6 160/6/6
f 173/11/20 174/12/20 178/13/20 177/13/20
f 157/8/5 161/7/5 165/10/5 163/9/5
f 155/8/10 157/8/10 163/9/10 164/9/10
f 161/7/9 159/7/9 166/10/9 165/10/9
f 157/8/13 155/8/13 168/1/13 167/1/13
f 161/7/14 157/8/14 167/1/14 169/5/14
f 159/7/11 161/7/11 169/5/11 170/5/11
f 155/8/12 159/7/12 170/5/12 168/1/12
f 164/9/17 163/9/17 171/14/17 172/15/17
f 163/9/18 165/10/18 173/11/18 171/14/18
f 165/10/15 166/10/15 174/12/15 173/11/15
f 166/10/16 164/9/16 172/15/16 174/12/16
f 177/13/23 178/13/23 182/16/23 181/16/23
f 172/15/7 171/14/7 175/17/7 176/17/7
f 174/12/22 172/15/22 176/17/22 178/13/22
f 171/14/21 173/11/21 177/13/21 175/17/21
f 182/16/6 180/18/6 188/19/6 190/20/6
f 176/17/19 175/17/19 179/18/19 180/18/19
f 178/13/25 176/17/25 180/18/25 182/16/25
f 175/17/24 177/13/24 181/16/24 179/18/24
f 186/21/8 184/22/8 196/23/8 198/24/8
f 185/21/26 183/22/26 191/25/26 193/26/26
f 180/18/6 179/18/6 187/19/6 188/19/6
f 184/22/26 186/21/26 194/26/26 192/25/26
f 188/19/10 187/19/10 191/25/10 192/25/10
f 190/20/8 188/19/8 192/25/8 194/26/8
f 187/19/5 189/20/5 193/26/5 191/25/5
f 189/20/9 190/20/9 194/26/9 193/26/9
f 179/18/6 181/16/6 189/20/6 187/19/6
f 186/21/26 185/21/26 193/26/26 194/26/26
f 183/22/26 184/22/26 192/25/26 191/25/26
f 181/16/6 182/16/6 190/20/6 189/20/6
f 195/23/26 197/24/26 198/24/26 196/23/26
f 183/22/5 185/21/5 197/24/5 195/23/5
f 185/21/9 186/21/9 198/24/9 197/24/9
f 184/22/10 183/22/10 195/23/10 196/23/10
f 199/27/31 202/28/31 201/29/31 200/30/31
f 55/31/26 6/32/26 105/33/26 199/27/26 200/30/26
f 200/30/10 201/29/10 56/34/10 55/31/10
f 105/33/8 106/35/8 202/28/8 199/27/8
f 5/36/6 56/34/6 201/29/6 202/28/6 106/35/6
