# Blender 5.0.1
# www.blender.org
o Cylinder
v 0.328319 0.106334 -0.792632
v 0.328319 -0.074233 -0.792632
v 0.792632 0.106334 -0.328319
v 0.792632 -0.074233 -0.328319
v 0.792632 0.106334 0.328319
v 0.792632 -0.074233 0.328319
v 0.328319 0.106334 0.792632
v 0.328319 -0.074233 0.792632
v -0.328319 0.106334 0.792632
v -0.328319 -0.074233 0.792632
v -0.792632 0.106334 0.328319
v -0.792632 -0.074233 0.328319
v -0.792632 0.106334 -0.328319
v -0.792632 -0.074233 -0.328319
v -0.328319 0.106334 -0.792632
v -0.328319 -0.074233 -0.792632
v 0.382683 0.106334 -0.923880
v 0.923879 0.106334 -0.382683
v 0.923879 -0.074233 -0.382683
v 0.382683 -0.074233 -0.923880
v 0.923880 0.106334 0.382683
v 0.923880 -0.074233 0.382683
v 0.382683 0.106334 0.923880
v 0.382683 -0.074233 0.923880
v -0.382683 0.106334 0.923880
v -0.382683 -0.074233 0.923880
v -0.923879 0.106334 0.382684
v -0.923879 -0.074233 0.382684
v -0.923880 0.106334 -0.382683
v -0.923880 -0.074233 -0.382683
v -0.382683 0.106334 -0.923880
v -0.382683 -0.074233 -0.923880
v 0.794404 -0.113756 0.129806
v 0.794404 0.016814 0.129806
v 0.794404 -0.113756 -0.129806
v 0.794404 0.016814 -0.129806
v 1.177517 -0.113756 0.030603
v 1.177517 0.016814 0.030603
v 1.177517 -0.113756 -0.030603
v 1.177517 0.016814 -0.030603
vn 0.7071 -0.0000 -0.7071
vn 0.2507 -0.0000 -0.9681
vn 0.7071 -0.0000 0.7071
vn -0.0000 -0.0000 1.0000
vn -0.7071 -0.0000 0.7071
vn -1.0000 -0.0000 -0.0000
vn 1.0000 -0.0000 -0.0000
vn -0.7071 -0.0000 -0.7071
vn -0.0000 -0.0000 -1.0000
vn -0.0000 1.0000 -0.0000
vn -0.0000 -1.0000 -0.0000
vn 0.3827 -0.0000 -0.9239
vn 0.3827 -0.0000 0.9239
vn 0.2507 -0.0000 0.9681
vt 1.000000 0.500000
vt 0.875000 0.500000
vt 0.875000 1.000000
vt 1.000000 1.000000
vt 0.375000 0.000000
vt 0.625000 0.000000
vt 0.625000 0.250000
vt 0.375000 0.250000
vt 0.750000 0.500000
vt 0.625000 0.500000
vt 0.625000 1.000000
vt 0.750000 1.000000
vt 0.500000 0.500000
vt 0.500000 1.000000
vt 0.375000 0.500000
vt 0.375000 1.000000
vt 0.250000 0.500000
vt 0.250000 1.000000
vt 0.000000 0.000000
vt 0.125000 0.500000
vt 0.125000 1.000000
vt 0.000000 0.500000
vt 0.000000 1.000000
vt 0.895597 0.395597
vt 0.919706 0.419706
vt 0.750000 0.490000
vt 0.750000 0.455905
vt 0.250000 0.455905
vt 0.250000 0.490000
vt 0.419706 0.419706
vt 0.395597 0.395597
vt 0.490000 0.250000
vt 0.455905 0.250000
vt 0.990000 0.250000
vt 0.895597 0.104403
vt 0.919706 0.080294
vt 0.955905 0.250000
vt 0.419706 0.080294
vt 0.395597 0.104403
vt 0.750000 0.044095
vt 0.750000 0.010000
vt 0.250000 0.010000
vt 0.250000 0.044095
vt 0.604403 0.104403
vt 0.580294 0.080294
vt 0.080294 0.080294
vt 0.104403 0.104403
vt 0.544095 0.250000
vt 0.510000 0.250000
vt 0.010000 0.250000
vt 0.044095 0.250000
vt 0.604403 0.395597
vt 0.580294 0.419706
vt 0.080294 0.419706
vt 0.104403 0.395597
vt 0.625000 0.750000
vt 0.375000 0.750000
vt 0.125000 0.750000
vt 0.875000 0.750000
s 0
f 17/1/1 18/2/1 19/3/1 20/4/1
f 35/5/2 36/6/2 40/7/2 39/8/2
f 21/9/3 23/10/3 24/11/3 22/12/3
f 23/10/4 25/13/4 26/14/4 24/11/4
f 25/13/5 27/15/5 28/16/5 26/14/5
f 27/15/6 29/17/6 30/18/6 28/16/6
f 13/19/7 11/19/7 12/19/7 14/19/7
f 29/17/8 31/20/8 32/21/8 30/18/8
f 31/20/9 17/22/9 20/23/9 32/21/9
f 15/19/3 13/19/3 14/19/3 16/19/3
f 3/24/10 18/25/10 17/26/10 1/27/10
f 2/28/11 20/29/11 19/30/11 4/31/11
f 33/8/6 34/7/6 36/10/6 35/15/6
f 22/32/12 6/33/12 5/19/12 21/34/12
f 7/35/10 23/36/10 21/34/10 5/37/10
f 6/33/11 22/32/11 24/38/11 8/39/11
f 9/40/10 25/41/10 23/36/10 7/35/10
f 8/39/11 24/38/11 26/42/11 10/43/11
f 11/44/10 27/45/10 25/41/10 9/40/10
f 10/43/11 26/42/11 28/46/11 12/47/11
f 13/48/10 29/49/10 27/45/10 11/44/10
f 12/47/11 28/46/11 30/50/11 14/51/11
f 15/52/10 31/53/10 29/49/10 13/48/10
f 14/51/11 30/50/11 32/54/11 16/55/11
f 1/27/10 17/26/10 31/53/10 15/52/10
f 16/55/11 32/54/11 20/29/11 2/28/11
f 11/19/1 9/19/1 10/19/1 12/19/1
f 9/19/9 7/19/9 8/19/9 10/19/9
f 7/19/8 5/19/8 6/19/8 8/19/8
f 19/30/13 18/25/13 3/19/13 4/31/13
f 3/19/5 1/19/5 2/19/5 4/19/5
f 1/19/4 15/19/4 16/19/4 2/19/4
f 39/15/7 40/10/7 38/56/7 37/57/7
f 37/57/14 38/56/14 34/11/14 33/16/14
f 35/20/11 39/15/11 37/57/11 33/58/11
f 40/10/10 36/2/10 34/59/10 38/56/10
